<svg xmlns="http://www.w3.org/2000/svg" viewBox="0 0 32 32" fill="none">
  <defs>
    <linearGradient id="blueGrad" x1="0" y1="0" x2="32" y2="32" gradientUnits="userSpaceOnUse">
      <stop stop-color="#3B82F6"/>
      <stop offset="1" stop-color="#1D4ED8"/>
    </linearGradient>
  </defs>
  <rect width="32" height="32" rx="8" fill="url(#blueGrad)"/>
  <path d="M24 12V20C24 21.1046 23.1046 22 22 22H10C8.89543 22 8 21.1046 8 20V12C8 10.8954 8.89543 10 10 10H22C23.1046 10 24 10.8954 24 12Z" fill="white" fill-opacity="0.1"/>
  <path d="M22 10H10C8.89543 10 8 10.8954 8 12V20C8 21.1046 8.89543 22 10 22H22C23.1046 22 24 21.1046 24 20V12C24 10.8954 23.1046 10 22 10Z" stroke="white" stroke-width="2" stroke-linecap="round" stroke-linejoin="round"/>
  <path d="M12 17L15 14L18 17L21 12" stroke="white" stroke-width="2" stroke-linecap="round" stroke-linejoin="round"/>
</svg>
